<mxfile host="app.diagrams.net" modified="2024-01-23T06:51:10.815Z" agent="Mozilla/5.0 (Windows NT 10.0; Win64; x64) AppleWebKit/537.36 (KHTML, like Gecko) Chrome/120.0.0.0 Safari/537.36 Edg/120.0.0.0" etag="knk2HkcrTjauJGy4ZTAI" version="22.1.17" type="github">
  <diagram name="第 1 页" id="fsL2psiZkac9huwS8dml">
    <mxGraphModel dx="956" dy="518" grid="0" gridSize="10" guides="1" tooltips="1" connect="1" arrows="1" fold="1" page="1" pageScale="1" pageWidth="827" pageHeight="1169" math="0" shadow="0">
      <root>
        <mxCell id="0" />
        <mxCell id="1" parent="0" />
        <mxCell id="59x-sOBfFQgK5nGoAJkm-7" style="edgeStyle=orthogonalEdgeStyle;rounded=0;orthogonalLoop=1;jettySize=auto;html=1;entryX=0.5;entryY=0;entryDx=0;entryDy=0;" edge="1" parent="1" source="59x-sOBfFQgK5nGoAJkm-5" target="59x-sOBfFQgK5nGoAJkm-10">
          <mxGeometry relative="1" as="geometry">
            <mxPoint x="160" y="437" as="targetPoint" />
          </mxGeometry>
        </mxCell>
        <mxCell id="59x-sOBfFQgK5nGoAJkm-11" style="edgeStyle=orthogonalEdgeStyle;rounded=0;orthogonalLoop=1;jettySize=auto;html=1;" edge="1" parent="1" source="59x-sOBfFQgK5nGoAJkm-5">
          <mxGeometry relative="1" as="geometry">
            <mxPoint x="160" y="250" as="targetPoint" />
          </mxGeometry>
        </mxCell>
        <mxCell id="59x-sOBfFQgK5nGoAJkm-5" value="Proton TMS Saas" style="ellipse;whiteSpace=wrap;html=1;" vertex="1" parent="1">
          <mxGeometry x="100" y="297" width="120" height="80" as="geometry" />
        </mxCell>
        <mxCell id="59x-sOBfFQgK5nGoAJkm-13" style="edgeStyle=orthogonalEdgeStyle;rounded=0;orthogonalLoop=1;jettySize=auto;html=1;entryX=1;entryY=0.5;entryDx=0;entryDy=0;exitX=0.5;exitY=1;exitDx=0;exitDy=0;" edge="1" parent="1" source="59x-sOBfFQgK5nGoAJkm-9" target="59x-sOBfFQgK5nGoAJkm-10">
          <mxGeometry relative="1" as="geometry" />
        </mxCell>
        <mxCell id="59x-sOBfFQgK5nGoAJkm-18" value="第三方系統主動請求Proton TMS API" style="edgeLabel;html=1;align=center;verticalAlign=middle;resizable=0;points=[];" vertex="1" connectable="0" parent="59x-sOBfFQgK5nGoAJkm-13">
          <mxGeometry x="0.4647" y="2" relative="1" as="geometry">
            <mxPoint x="39" y="-2" as="offset" />
          </mxGeometry>
        </mxCell>
        <mxCell id="59x-sOBfFQgK5nGoAJkm-9" value="第三方系統" style="ellipse;whiteSpace=wrap;html=1;" vertex="1" parent="1">
          <mxGeometry x="520" y="297" width="120" height="80" as="geometry" />
        </mxCell>
        <mxCell id="59x-sOBfFQgK5nGoAJkm-10" value="對外API 服務" style="rounded=1;whiteSpace=wrap;html=1;" vertex="1" parent="1">
          <mxGeometry x="100" y="440" width="120" height="60" as="geometry" />
        </mxCell>
        <mxCell id="59x-sOBfFQgK5nGoAJkm-14" style="edgeStyle=orthogonalEdgeStyle;rounded=0;orthogonalLoop=1;jettySize=auto;html=1;entryX=0.5;entryY=0;entryDx=0;entryDy=0;" edge="1" parent="1" source="59x-sOBfFQgK5nGoAJkm-12" target="59x-sOBfFQgK5nGoAJkm-9">
          <mxGeometry relative="1" as="geometry" />
        </mxCell>
        <mxCell id="59x-sOBfFQgK5nGoAJkm-15" value="TMS 通過Hooks 主動傳信息給第三方系統" style="edgeLabel;html=1;align=center;verticalAlign=middle;resizable=0;points=[];" vertex="1" connectable="0" parent="59x-sOBfFQgK5nGoAJkm-14">
          <mxGeometry x="-0.5209" y="1" relative="1" as="geometry">
            <mxPoint x="29" y="1" as="offset" />
          </mxGeometry>
        </mxCell>
        <mxCell id="59x-sOBfFQgK5nGoAJkm-12" value="Hooks" style="rounded=1;whiteSpace=wrap;html=1;" vertex="1" parent="1">
          <mxGeometry x="100" y="80" width="120" height="60" as="geometry" />
        </mxCell>
        <mxCell id="59x-sOBfFQgK5nGoAJkm-17" style="edgeStyle=orthogonalEdgeStyle;rounded=0;orthogonalLoop=1;jettySize=auto;html=1;" edge="1" parent="1" source="59x-sOBfFQgK5nGoAJkm-16" target="59x-sOBfFQgK5nGoAJkm-12">
          <mxGeometry relative="1" as="geometry" />
        </mxCell>
        <mxCell id="59x-sOBfFQgK5nGoAJkm-16" value="小後台配置Hooks" style="rounded=1;whiteSpace=wrap;html=1;" vertex="1" parent="1">
          <mxGeometry x="100" y="190" width="120" height="60" as="geometry" />
        </mxCell>
      </root>
    </mxGraphModel>
  </diagram>
</mxfile>
